<?xml version="1.0" encoding="UTF-8"?>
<svg id="Layer_2" data-name="Layer 2" xmlns="http://www.w3.org/2000/svg" viewBox="0 0 227.3 169.29">
  <defs>
    <style>
      .cls-1 {
        fill: #ffcf01;
      }

      .cls-2 {
        fill: #6cbe45;
      }

      .cls-3 {
        fill: #060000;
        font-family: Poppins-Black, Poppins;
        font-size: 19.75px;
        font-weight: 800;
      }
    </style>
  </defs>
  <g id="Layer_1-2" data-name="Layer 1">
    <g>
      <g>
        <g>
          <path class="cls-1" d="M150.72,55.86h0c-1.43,0-2.82-.29-4.13-.85-2.97-1.28-5.14-3.81-6.1-7.13-.88-3.03-.63-6.4,.7-9.49,2.15-4.98,6.84-8.32,11.68-8.32,1.43,0,2.82,.29,4.13,.85,2.86,1.23,4.99,3.66,6,6.85,.99,3.12,.78,6.59-.59,9.78-2.15,4.98-6.84,8.32-11.67,8.32Zm2.14-23.35c-3.88,0-7.67,2.75-9.43,6.85-1.11,2.57-1.32,5.35-.59,7.84,.76,2.61,2.43,4.58,4.72,5.57,1,.43,2.06,.65,3.16,.65,3.88,0,7.67-2.75,9.43-6.85,1.14-2.64,1.32-5.51,.51-8.07-.79-2.5-2.44-4.39-4.64-5.34-1-.43-2.06-.65-3.16-.65Z"/>
          <ellipse class="cls-1" cx="151.79" cy="42.96" rx="9.02" ry="7.45" transform="translate(52.22 165.32) rotate(-66.66)"/>
          <ellipse class="cls-1" cx="151.79" cy="42.96" rx="9.02" ry="7.45" transform="translate(52.22 165.32) rotate(-66.66)"/>
        </g>
        <g>
          <path class="cls-2" d="M124.35,123.05c-.98,0-1.96-.03-2.94-.09-2.42-.15-4.88-.49-7.31-1.01-14.08-3.01-22.97-9.97-27.18-21.28l-.29-.82c-3.37-9.73-3.27-22.56,.3-39.21,.62-2.91,1.2-5.72,1.84-8.85-1.92,.67-3.66,1.21-4.67,1.52-.39,.12-.8,.24-1.21,.36-2.59,.77-5.21,1.16-7.77,1.17h-.06c-3.3,0-6.42-.52-9.02-1.51-4.45-1.69-7.01-4.68-7.01-8.21,0-4.52,4.02-7.98,10.74-9.24,3.21-.61,7.58-1.7,13.75-3.41,3.54-.98,6.96-2.02,9.95-3.02,.07-.29,.14-.58,.21-.86,3.24-13.09,6.79-20.61,11.87-25.16,1.52-1.36,3.23-2.37,5.07-2.98,1-.33,1.91-.4,2.51-.43,.12,0,.24,0,.36,0,5.31,0,9.63,4.49,9.63,10.01,0,1.38-.44,2.96-1.36,4.83-.4,.81-.73,1.53-1.01,2.2-.38,.91-.91,2.16-1.36,3.24,1.37-.26,2.75-.46,4.19-.61,.68-.07,1.33-.13,1.94-.17,1.43-.11,2.93-.17,4.47-.17,1.29,0,2.62,.04,4.05,.12,5.09,.25,9.08,4.46,9.08,9.57s-3.76,9.1-8.56,9.61c-1.26,.15-2.63,.34-4.04,.56-1.3,.2-2.62,.43-3.91,.67-2.07,.39-4.03,.81-5.84,1.26l-.41,.1c-1.84,.46-3.5,.95-4.92,1.44-.85,.29-1.57,.93-1.98,1.74l-.2,.42c-.54,1.33-3.27,11.45-4.27,16.21-6.72,32.01-.4,37.63,5.87,38.94,.53,.11,1.06,.18,1.6,.21-1.68-7.38-.49-15.85,3.35-23.51,4.02-8.03,10.58-14.31,17.98-17.23,2.83-1.12,5.7-1.72,8.53-1.78,.17,0,.34,0,.51,0,3.3,0,6.44,.73,9.31,2.17,6.17,3.09,10.37,9.03,11.81,16.71,1.35,7.21,.09,15.19-3.55,22.46-.97,1.94-2.1,3.81-3.36,5.54l-.14,.18c-1.33,1.72-2.77,3.36-4.27,4.86-8.8,8.81-19.95,13.47-32.26,13.47Zm-35.28-23.61l.14,.38c3.9,10.46,12.21,16.92,25.4,19.74,2.31,.49,4.65,.81,6.95,.96,.92,.06,1.86,.09,2.79,.09,11.65,0,22.21-4.41,30.53-12.75,1.43-1.43,2.79-2.99,4.07-4.63l.09-.13c1.18-1.63,2.24-3.38,3.16-5.2,3.41-6.8,4.59-14.23,3.33-20.92-1.3-6.92-5.03-12.24-10.5-14.98-2.66-1.33-5.56-1.98-8.67-1.91-2.54,.06-5.13,.6-7.68,1.61-6.85,2.7-12.93,8.55-16.69,16.05-3.83,7.66-4.85,16.14-2.79,23.27l.41,1.43-1.49,.12c-1.27,.11-2.54,.03-3.77-.23-7.37-1.55-14.92-7.71-7.75-41.84,.92-4.36,3.76-15.11,4.42-16.67l.03-.06,.23-.47c.7-1.4,1.93-2.48,3.38-2.98,1.49-.51,3.21-1.01,5.12-1.5l.41-.1c1.85-.46,3.86-.89,5.97-1.29,1.32-.25,2.66-.48,3.99-.68,1.44-.22,2.83-.41,4.14-.57,3.59-.38,6.39-3.53,6.39-7.18s-2.97-6.94-6.76-7.13c-1.4-.08-2.68-.11-3.93-.11-1.47,0-2.91,.05-4.28,.16-.59,.05-1.22,.1-1.88,.17-2.11,.22-4.12,.56-6.13,1.05l-2.24,.54,.8-2.16c.24-.63,.47-1.23,.7-1.77,.48-1.16,1.11-2.64,1.54-3.67,.3-.71,.65-1.47,1.07-2.32,.74-1.52,1.11-2.75,1.11-3.75,0-4.17-3.22-7.56-7.19-7.56-.09,0-.18,0-.27,0-.45,.02-1.12,.07-1.83,.3-1.52,.51-2.94,1.34-4.22,2.49-4.68,4.19-8.01,11.35-11.13,23.92-.12,.49-.24,.99-.37,1.5l-.16,.66-.64,.22c-3.18,1.08-6.89,2.21-10.72,3.28-6.24,1.73-10.67,2.83-13.95,3.46-5.48,1.03-8.75,3.59-8.75,6.84,0,2.46,1.98,4.62,5.43,5.93,2.32,.88,5.14,1.35,8.15,1.35h.06c2.33,0,4.71-.36,7.08-1.07,.4-.12,.8-.24,1.19-.36,1.33-.41,3.96-1.23,6.58-2.21l2.06-.76-.43,2.15c-.81,4.03-1.51,7.45-2.27,11.01-3.49,16.32-3.6,28.78-.31,38.09l.07,.2Z"/>
          <path class="cls-2" d="M160.2,96.9c-.88,1.75-1.87,3.38-2.97,4.89-.02,.02-.03,.04-.05,.07-1.24,1.6-2.53,3.07-3.88,4.42,0,0,0,0,0,0-9.02,9.04-20.37,12.7-31.59,12.01-2.22-.14-4.43-.44-6.62-.91-11.82-2.53-19.97-8.12-23.78-18.34h0c-3.26-8.76-3.34-20.9,.19-37.42,1.32-6.18,2.48-12.1,3.6-17.62-1.94,1.25-6.57,3.07-12.37,4.84-.39,.12-.78,.24-1.17,.35-2.09,.62-4.27,.97-6.45,.97-.02,0-.03,0-.05,0-2.8,0-5.37-.45-7.35-1.2-2.44-.93-3.99-2.3-3.99-3.84,0-2.09,2.86-3.88,6.93-4.65h0c3.79-.72,8.74-2,14.14-3.5,4.81-1.34,9.19-2.72,12.66-3.94,.26-1.13,.52-2.23,.79-3.31,2.59-10.44,5.59-18.46,10.45-22.8,1-.9,2.16-1.61,3.43-2.03,.43-.14,.87-.18,1.2-.19,2.85-.11,5.14,2.35,5.14,5.33,0,.81-.5,1.99-.88,2.77s-.77,1.61-1.12,2.43c-.46,1.09-1.08,2.54-1.55,3.69-.95,2.28-2,5.36-2.83,8.37,.8-.28,1.54-.6,2.42-.89,2.86-.94,5.93-1.69,9.56-2.07,.61-.06,1.22-.12,1.81-.16,2.83-.22,5.5-.18,7.91-.04h0c2.59,.13,4.66,2.27,4.66,4.9s-1.92,4.71-4.4,4.96h0c-1.38,.17-2.79,.36-4.24,.59-1.39,.22-2.74,.45-4.06,.69-2.17,.41-4.22,.85-6.11,1.32h0c-2.15,.53-4.08,1.09-5.72,1.65-2.06,.71-3.75,2.22-4.69,4.18l-.21,.43h0c-.69,1.44-3.69,12.87-4.61,17.22-6.31,30.04-2.16,42.03,9.48,44.48,2.83,.59,5.8,.39,8.76-.7-3.3-6.82-3.06-16.3,1.33-25.08,3.65-7.29,9.41-12.57,15.51-14.97,2.29-.9,4.63-1.4,6.92-1.46,2.64-.06,5.23,.47,7.62,1.67,10,5.01,12.76,19.74,6.17,32.9Z"/>
        </g>
      </g>
      <text class="cls-3" transform="translate(0 156.9)"><tspan x="0" y="0" xml:space="preserve">Tamil Info  Technology</tspan></text>
    </g>
  </g>
</svg>